<svg width="270" height="180" viewBox="0 0 270 180" fill="none" xmlns="http://www.w3.org/2000/svg">
    <path d="M0 12C0 5.37258 5.37258 0 12 0H258C264.627 0 270 5.37258 270 12V168C270 174.627 264.627 180 258 180H12C5.37258 180 0 174.627 0 168V12Z"
          fill="#131D35" fill-opacity="0.26"/>
    <path d="M125.667 102C124.933 102 124.306 101.739 123.783 101.217C123.261 100.694 123 100.067 123 99.3333V80.6667C123 79.9333 123.261 79.3056 123.783 78.7833C124.306 78.2611 124.933 78 125.667 78H144.333C145.067 78 145.694 78.2611 146.217 78.7833C146.739 79.3056 147 79.9333 147 80.6667V99.3333C147 100.067 146.739 100.694 146.217 101.217C145.694 101.739 145.067 102 144.333 102H125.667ZM125.667 99.3333H144.333V80.6667H125.667V99.3333ZM127 96.6667H143L138 90L134 95.3333L131 91.3333L127 96.6667Z"
          fill="#131D35" fill-opacity="0.54"/>
</svg>
