<svg width="693" height="450" viewBox="0 0 693 450" fill="none" xmlns="http://www.w3.org/2000/svg">
<path d="M0.5 12C0.5 5.37257 5.87258 0 12.5 0H680.5C687.127 0 692.5 5.37258 692.5 12V438C692.5 444.627 687.127 450 680.5 450H12.5C5.87257 450 0.5 444.627 0.5 438V12Z" fill="#131D35" fill-opacity="0.26"/>
<path d="M337.167 237C336.433 237 335.806 236.739 335.283 236.217C334.761 235.694 334.5 235.067 334.5 234.333V215.667C334.5 214.933 334.761 214.306 335.283 213.783C335.806 213.261 336.433 213 337.167 213H355.833C356.567 213 357.194 213.261 357.717 213.783C358.239 214.306 358.5 214.933 358.5 215.667V234.333C358.5 235.067 358.239 235.694 357.717 236.217C357.194 236.739 356.567 237 355.833 237H337.167ZM337.167 234.333H355.833V215.667H337.167V234.333ZM338.5 231.667H354.5L349.5 225L345.5 230.333L342.5 226.333L338.5 231.667Z" fill="#131D35" fill-opacity="0.54"/>
</svg>
