<svg width="32" height="32" viewBox="0 0 32 32" fill="none" xmlns="http://www.w3.org/2000/svg">
<path d="M4.30768 3.69231C4.30768 1.6531 5.96078 0 7.99999 0H17.8461L28.9231 11.0769L28.9231 28.3077C28.9231 30.3469 27.27 32 25.2308 32H7.99998C5.96078 32 4.30768 30.3469 4.30768 28.3077V3.69231Z" fill="#154EF9"/>
<path d="M17.8461 0L28.9231 11.0769H21.5384C19.4992 11.0769 17.8461 9.42382 17.8461 7.38462V0Z" fill="#4E7EFB"/>
<path d="M21.0879 20.9229V25.8459H19.7939V20.9229H21.0879ZM23.1745 22.9719V23.8848H20.7192V22.9719H23.1745ZM23.3846 20.9229V21.8392H20.7192V20.9229H23.3846Z" fill="white"/>
<path d="M16.5784 25.8459H15.3877L15.3951 24.933H16.5784C16.8242 24.933 17.0319 24.8789 17.2015 24.7707C17.3735 24.6625 17.5038 24.5013 17.5922 24.2872C17.6832 24.0708 17.7286 23.8048 17.7286 23.4892V23.2762C17.7286 23.0395 17.7028 22.8321 17.6512 22.654C17.6021 22.4737 17.5283 22.3238 17.43 22.2043C17.3317 22.0826 17.2088 21.9913 17.0614 21.9305C16.9164 21.8696 16.7492 21.8392 16.56 21.8392H15.3656V20.9229H16.56C16.9237 20.9229 17.2568 20.9803 17.5591 21.0953C17.8638 21.208 18.1268 21.3703 18.348 21.5822C18.5716 21.7918 18.7437 22.0409 18.8641 22.3294C18.987 22.6157 19.0484 22.9336 19.0484 23.283V23.4892C19.0484 23.8363 18.987 24.1542 18.8641 24.4427C18.7437 24.7312 18.5729 24.9803 18.3517 25.19C18.1305 25.3996 17.8687 25.5619 17.5664 25.6769C17.2666 25.7896 16.9373 25.8459 16.5784 25.8459ZM16.1287 20.9229V25.8459H14.8347V20.9229H16.1287Z" fill="white"/>
<path d="M11.988 24.1756H10.6535V23.2593H11.988C12.1699 23.2593 12.3173 23.2311 12.4304 23.1748C12.5434 23.1184 12.6258 23.0406 12.6774 22.9414C12.7315 22.84 12.7585 22.7262 12.7585 22.5999C12.7585 22.4647 12.7315 22.3396 12.6774 22.2246C12.6258 22.1097 12.5434 22.0172 12.4304 21.9474C12.3173 21.8752 12.1699 21.8392 11.988 21.8392H11.1401V25.8459H9.84613V20.9229H11.988C12.4181 20.9229 12.788 20.995 13.0977 21.1393C13.4098 21.2835 13.6494 21.4819 13.8165 21.7343C13.9837 21.9846 14.0672 22.2708 14.0672 22.5932C14.0672 22.911 13.9837 23.1883 13.8165 23.425C13.6494 23.6617 13.4098 23.8465 13.0977 23.9795C12.788 24.1102 12.4181 24.1756 11.988 24.1756Z" fill="white"/>
</svg>
